Simulation
nRows=30
nColumns=15
endheader
time  TH_x TH_y TH_z SC_y  SC_z  SC_x  AC_y  AC_z  AC_x  GH_y  GH_z  GH_yy  EL_x  PS_y
0.0  0.000000  0.000000  0.000000  -34.36681953786089  -3.4356203906864002  -19.492783340311362  46.3642908317094  13.386753355828827  11.938350289440066  33.5310217172389  11.25922862744905  -7.087851081273183  5.121835655939399  120.000000
0.031000000000000014  0.000000  0.000000  0.000000  -34.31306546256246  -4.051809944460882  -21.571484249461925  45.950718511896326  15.190545312504675  12.975786356331517  32.40741076062141  11.430953547639856  -6.60498443127976  5.181191423558211  120.000000
0.06200000000000003  0.000000  0.000000  0.000000  -34.414837835841865  -4.084408506056054  -23.561616924128472  45.477656454954776  16.69138213191911  14.308079742236416  32.47947914754234  11.483741643510713  -7.141928096954842  5.461083077155543  120.000000
0.09300000000000004  0.000000  0.000000  0.000000  -34.524852968539406  -3.8776581977518805  -25.341478961550038  44.972747939587784  17.94005250339367  15.682658955812615  32.880942318880834  11.433834785237261  -7.860242946967121  5.804474842267481  120.000000
0.12400000000000005  0.000000  0.000000  0.000000  -34.553605667156916  -3.6307558347941287  -26.80271064622803  44.49317545879322  18.964633148729334  16.847273143897187  33.31850910972566  11.322035833903136  -8.522600839902523  6.188911736709415  120.000000
0.15500000000000008  0.000000  0.000000  0.000000  -34.53605985196769  -3.4463186306182094  -27.875687686298104  44.03729642966743  19.76742925900463  17.69438780685149  33.62004438219748  11.175474113862297  -8.976667836336887  6.644323075947588  120.000000
0.18600000000000008  0.000000  0.000000  0.000000  -34.525586433587186  -3.328876325914056  -28.553226732873192  43.617844488006  20.36231783685222  18.200086718165924  33.78893213925617  11.006933137523298  -9.2616544195406  7.207563042711448  120.000000
0.21700000000000008  0.000000  0.000000  0.000000  -34.54046248865017  -3.2321478176150404  -28.87432534585825  43.257221056596634  20.767748133045075  18.403828275626164  33.729647530428295  10.808771105229585  -9.29123362839127  7.909574543413444  120.000000
0.2480000000000001  0.000000  0.000000  0.000000  -34.5841519766292  -3.0988902418647  -28.928669097431147  42.92842478670765  21.000908752984092  18.415290108685458  33.31032451289833  10.576960236408857  -8.955496044775309  8.782119271778384  120.000000
0.27900000000000014  0.000000  0.000000  0.000000  -34.63938295267263  -2.885351000433321  -28.86670471494691  42.59460881200595  21.09619324559968  18.359121989584096  32.423537321730464  10.347770752197306  -8.163684594491203  9.847167431843138  120.000000
0.31000000000000016  0.000000  0.000000  0.000000  -34.680904864341024  -2.580049890810192  -28.77406269394855  42.22190568290506  21.082293756139133  18.31911945327799  30.976791381496696  10.121157346851986  -6.8399965873380575  11.118002875141034  120.000000
0.34100000000000014  0.000000  0.000000  0.000000  -34.7301044499778  -2.195699823320737  -28.600983384489297  41.84346798122758  20.965889886130547  18.27351379880052  28.907621615131365  9.866595660231141  -4.933681676937256  12.595911139789573  120.000000
0.37200000000000016  0.000000  0.000000  0.000000  -34.829018693044034  -1.743601394379046  -28.266051635632984  41.51680923037357  20.7474913439964  18.158791758348272  26.174424013543575  9.566634412627476  -2.4105546344527164  14.282567292417383  120.000000
0.4030000000000002  0.000000  0.000000  0.000000  -34.986847209525564  -1.2366080031630717  -27.733027910550465  41.27454310708115  20.419223350499742  17.939991664896212  22.62934749619153  9.239265353375828  0.8918125124994797  16.153939997809367  120.000000
0.43400000000000016  0.000000  0.000000  0.000000  -35.19581535433839  -0.696109317935558  -26.99646441969712  41.124740358224436  19.973872929778587  17.606348765310063  18.09738577997334  8.926641523881807  5.175288576296346  18.16751612583507  120.000000
0.4650000000000002  0.000000  0.000000  0.000000  -35.4463420363131  -0.14393295264512068  -26.072658910736937  41.066968045846586  19.412921271388274  17.156167807127755  12.521069591859288  8.690215412382134  10.53284707960242  20.278396228160982  120.000000
0.4960000000000002  0.000000  0.000000  0.000000  -35.7280920786957  0.4041598808722125  -24.99111437661345  41.08503295603166  18.750204362369136  16.598396082922044  6.0673479440972224  8.584933525136442  16.833695480801147  22.45037726694161  120.000000
0.5270000000000002  0.000000  0.000000  0.000000  -36.029218247915914  0.940819342177026  -23.79461355794549  41.14402254995307  18.008542041147535  15.952045123107657  -0.8333517156179656  8.644738220788637  23.679321777153298  24.655444551645168  120.000000
0.5580000000000003  0.000000  0.000000  0.000000  -36.337730489414604  1.4671430406494028  -22.53259208545699  41.19416041232089  17.218450739749287  15.238981246277675  -7.585211577323892  8.864240335558009  30.495998430101167  26.872813877885953  120.000000
0.5890000000000003  0.000000  0.000000  0.000000  -36.64491586362168  1.9883225245762204  -21.250529894634756  41.1824619315923  16.409056990620957  14.474062805816306  -13.637634916366183  9.20221789935943  36.749506221515134  29.084679590497444  120.000000
0.6200000000000003  0.000000  0.000000  0.000000  -36.947746453020834  2.508451913303516  -19.980689628718995  41.065869301536765  15.605881226774843  13.662051455162844  -18.65758564221818  9.59489143684644  42.11795979310941  31.272628064850014  120.000000
0.6510000000000002  0.000000  0.000000  0.000000  -37.250454526181294  3.0319228376286693  -18.739961312072033  40.82235786545752  14.824776390622059  12.802729583570178  -22.54801625194883  9.98245421620828  46.51125575720254  33.42108253189374  120.000000
0.6820000000000003  0.000000  0.000000  0.000000  -37.564096350157676  3.5657066502620967  -17.531653640527924  40.458575436759965  14.072168960195338  11.901785592276967  -25.41012369311425  10.329192815876764  50.02867772924143  35.52449667630974  120.000000
0.7130000000000003  0.000000  0.000000  0.000000  -37.902447951213304  4.119285719269568  -16.345442316511264  40.011993664119295  13.340460241395391  10.9728887545461  -27.468858096757685  10.63665869572811  52.880615477731155  37.59208961839051  120.000000
0.7440000000000003  0.000000  0.000000  0.000000  -38.279561439074776  4.703011651527094  -15.158258998984637  39.54608688042564  12.608728066507364  10.038464369715683  -29.021878126363163  10.940151258688863  55.335580070073156  39.640440996473096  120.000000
0.7750000000000004  0.000000  0.000000  0.000000  -38.706720120039094  5.327030876169488  -13.938644286767346  39.135195970256326  11.845311526379867  9.123615861112311  -30.36141996829843  11.293335260504033  57.64839195772011  41.68799267959476  120.000000
0.8060000000000004  0.000000  0.000000  0.000000  -39.19279473175695  5.996898318850895  -12.65161305027135  38.841703727992794  11.018602716878043  8.247381439982542  -31.708026125443492  11.746469042889292  60.00515060876767  43.75597996606414  120.000000
0.8370000000000004  0.000000  0.000000  0.000000  -39.73763873039854  6.709633855462992  -11.269779252808236  38.69235772658203  10.108019959910697  7.413653544584741  -33.140345499548204  12.324462825175255  62.462439034301056  45.8599787187237  120.000000
0.8680000000000003  0.000000  0.000000  0.000000  -40.32889165112783  7.453222563264642  -9.781379817353503  38.67011415584894  9.113204443663609  6.607398995332774  -34.603576650888  13.015150992910785  64.95934352065377  48.0064728375002  120.000000
0.8990000000000004  0.000000  0.000000  0.000000  -40.94790003019232  8.208120799119666  -8.193666695697095  38.72770655533309  8.052949910853494  5.802833096895168  -35.97459061783739  13.78127429423833  67.37864142828809  50.19493296062752  120.000000
